# xmcd
#
# Track frame offsets:
#	150
#	11768
#	26881
#	40983
#	65781
#	77897
#	92692
#	105972
#	115900
#	139104
#	152870
#	163346
#	176345
#
# Disc length: 2549 seconds
#
# Submitted via: cddb-tool 0.4.5
#
#blues,classical,country,data,folk,jazz,newage,reggae,rock,soundtrack,misc
# Revision: 0
# Processed by: cddbd v1.5.2PL0 Copyright (c) Steve Scherf et al.
#
DISCID=ac09f30d
DTITLE=The Whiskey Daredevils - Introducing The Whiskey Daredevils
DYEAR=2009
DGENRE=Country
TTITLE0=Never Saw Johnny Cash
TTITLE1=It Ain't Him
TTITLE2=Left Me On A Train
TTITLE3=Thicker Than Wine
TTITLE4=Drive
TTITLE5=Last Guest List
TTITLE6=West Akron Shakedown
TTITLE7=Me And My Black Eye
TTITLE8=Senorita
TTITLE9=Going Dutch
TTITLE10=Railbender
TTITLE11=Party Plates
TTITLE12=Empty Out The Shake
EXTD=
EXTT0=
EXTT1=
EXTT2=
EXTT3=
EXTT4=
EXTT5=
EXTT6=
EXTT7=
EXTT8=
EXTT9=
EXTT10=
EXTT11=
EXTT12=
PLAYORDER=
